<svg width="103" height="76" viewBox="0 0 103 76" fill="none" xmlns="http://www.w3.org/2000/svg">
<path d="M21.149 75.5C28.849 75.5 33.149 73.3 37.749 69C41.449 65.6 44.249 60 44.249 51.2C44.249 42.4 39.249 32.6 26.849 32.6C22.349 32.6 17.949 34.5 15.849 36.5L15.249 36.2C17.849 24.1 28.649 12.3 36.649 9.3C38.449 8.6 38.949 7.79999 38.949 6.9C38.949 6.2 38.049 5.7 37.449 5.7C36.849 5.7 35.549 5.8 32.849 6.6C26.549 8.5 19.949 11.6 13.249 18.2C6.749 24.7 0.248999 35.6 0.248999 49.2C0.248999 54.6 0.848999 61.6 6.349 68.9C9.549 73.1 14.049 75.5 21.149 75.5ZM22.149 71.8C15.349 71.8 14.049 59.9 14.049 54.1C14.049 47.1 14.049 42.8 16.049 40.8C17.249 39.5 19.049 39.1 21.949 39.1C27.749 39.1 30.549 46.8 30.549 56.3C30.549 70.3 25.849 71.8 22.149 71.8ZM54.949 68.1C54.949 69.4 54.049 70.5 52.749 70.5H50.849C50.149 70.5 49.849 70.7 49.849 71.4V73.3C49.849 73.9 50.049 74.3 50.349 74.3C51.049 74.3 54.549 74 61.549 74C67.949 74 71.249 74.3 71.849 74.3C72.449 74.3 72.649 74 72.649 73.4V71.3C72.649 70.7 72.449 70.5 71.749 70.5H69.849C68.849 70.5 67.949 69.8 67.949 67.9V53C68.549 53 69.349 53.2 70.149 54.2C73.049 58 80.849 68.5 80.849 69.5C80.849 70.2 80.649 70.7 79.849 70.7H79.149C78.749 70.7 78.549 71 78.549 71.5V73.1C78.549 74 78.749 74.3 79.249 74.3C80.049 74.3 84.249 74 90.149 74C98.349 74 101.149 74.3 101.949 74.3C102.649 74.3 102.849 74 102.849 73.4V71.4C102.849 70.7 102.649 70.5 102.049 70.5C100.949 70.5 98.349 70.2 96.749 69C93.849 66.8 81.849 51.8 78.149 47.4C80.249 45.3 87.849 38.6 90.949 37.2C93.449 36.1 95.449 35.5 96.649 35.5H97.849C98.249 35.5 98.449 35.3 98.449 34.7V32.6C98.449 32 98.249 31.7 97.849 31.7C97.149 31.7 94.649 32 88.649 32C82.149 32 78.549 31.7 77.949 31.7C77.449 31.7 77.249 32 77.249 32.5V34.6C77.249 35.2 77.349 35.5 78.049 35.5C79.049 35.5 80.349 36.1 80.349 37.3C80.349 38.8 75.649 44.1 71.449 48C70.249 49.1 69.249 49.5 68.149 49.5L68.249 34.9C68.349 21.5 68.349 6.79999 68.749 2C68.849 0.799995 68.649 0.299995 67.849 0.299995C67.049 0.299995 65.849 0.699996 63.949 1.6C61.549 2.4 54.649 4.6 49.449 5.49999C48.449 5.7 48.149 6.1 48.149 6.5V8.3C48.149 8.6 48.549 9 49.549 9.3C54.549 10.8 54.949 13.2 54.949 16.5V68.1Z" fill="url(#paint0_linear_428_2660)"/>
<defs>
<linearGradient id="paint0_linear_428_2660" x1="48.5697" y1="3" x2="48.5697" y2="98" gradientUnits="userSpaceOnUse">
<stop stop-color="#EBBF7C"/>
<stop offset="1" stop-color="#CE9846"/>
</linearGradient>
</defs>
</svg>
