<svg width="67" height="102" viewBox="0 0 67 102" fill="none" xmlns="http://www.w3.org/2000/svg">
<path d="M44.8234 98.5375C49.1515 98.5375 51.8927 98.6818 52.7583 100.557C53.3354 101.856 53.3354 102 54.6338 102C57.2307 102 56.0766 102 56.7979 100.413L66.1756 77.9066C66.7527 77.041 66.1756 76.4639 65.0214 75.8868C63.5787 75.1655 63.1459 75.3098 62.4245 76.6082C59.2505 81.9463 55.4995 88.727 45.689 88.727H16.4019C22.7498 83.1004 34.1473 74.7327 43.9577 63.4795C56.9422 48.9081 61.8474 38.5205 61.8474 26.2574C61.8474 9.95474 48.7187 0 36.5999 0C17.1232 0 10.0539 16.0141 7.74558 21.6407C7.16849 22.9392 7.31277 23.372 7.74558 23.6605L9.76538 24.5262C10.4867 24.959 10.9196 24.8147 11.4966 23.8048C13.9493 19.4767 18.566 9.95474 30.829 9.81047C41.2166 9.66619 49.0073 17.3126 49.4401 30.1528C49.8729 42.7044 43.2364 53.8133 31.6947 66.2206C20.1529 78.628 7.45704 89.7369 0.676273 96.0849C-0.0450849 96.8062 -0.189356 97.239 0.243458 98.2489C0.676273 99.1146 1.10909 99.1146 1.83045 99.1146C2.40753 99.1146 4.13879 98.9703 6.30286 98.826C8.46694 98.6818 11.0638 98.5375 13.5164 98.5375H44.8234Z" fill="url(#paint0_linear_428_2728)"/>
<defs>
<linearGradient id="paint0_linear_428_2728" x1="33.201" y1="0" x2="33.201" y2="102" gradientUnits="userSpaceOnUse">
<stop stop-color="#EBBF7C"/>
<stop offset="1" stop-color="#CE9846"/>
</linearGradient>
</defs>
</svg>
