<svg width="121" height="50" viewBox="0 0 121 50" fill="none" xmlns="http://www.w3.org/2000/svg">
<path d="M15.1508 0.940812C11.2234 0.940812 8.19178 2.18103 5.22905 4.73035C2.61082 6.93518 0.268196 12.3094 0.268196 17.3392C0.268196 22.3689 3.50653 29.6035 11.7057 29.6035C15.8398 29.6035 18.2513 28.4322 19.2848 27.6054H19.7671C18.3202 37.1826 11.8435 44.6239 6.05586 46.8287C5.57355 47.0354 5.16015 47.5177 5.16015 48C5.16015 48.8268 5.71135 49.0335 6.26256 49.0335C6.74486 49.0335 7.70947 48.8957 8.39848 48.689C12.5325 47.5177 15.4953 46.0019 19.4226 42.6946C26.795 36.4936 30.5845 26.1585 30.5845 16.8569C30.5845 14.721 29.8955 10.3113 26.7261 6.03947C23.97 2.38773 20.8006 0.940812 15.1508 0.940812ZM15.3575 3.49014C19.6293 3.49014 20.6628 9.14 20.6628 15.5478C20.6628 18.7172 20.7317 22.989 19.6293 24.2293C18.7336 25.125 17.3556 25.6073 15.7709 25.6073C12.0502 25.6073 9.22529 20.5775 9.22529 13.7563C9.22529 7.41748 11.2923 3.49014 15.3575 3.49014ZM46.1561 28.7078C46.1561 31.1882 46.225 38.7673 46.0872 41.6611C45.9494 45.1751 44.9159 45.3818 41.1263 45.3818H39.3349C38.7837 45.3818 38.3703 45.4507 38.3703 45.8641V47.7244C38.3703 48.0689 38.5081 48.2067 38.9215 48.2067C39.266 48.2067 48.981 48 50.9791 48C52.1504 48 61.5209 48.2067 62.0032 48.2067C62.5544 48.2067 62.7611 48.0689 62.7611 47.7244V45.933C62.7611 45.5885 62.5544 45.3818 62.0721 45.3818H59.5917C56.1467 45.3818 55.8711 44.8995 55.8022 41.3166C55.8022 40.5587 55.7333 28.7078 55.7333 25.125V22.2311C55.7333 13.3429 55.94 2.52553 55.94 1.97432C55.94 1.42312 55.7333 0.940812 55.3199 0.940812C54.8376 0.940812 54.4931 1.14752 54.0108 1.35422L37.2679 9.5534C36.7856 9.829 36.7167 10.1046 36.8545 10.3802L37.3368 11.7582C37.4746 12.0338 37.7502 12.0338 38.0947 11.9649L41.4708 11.0003C42.9866 10.5869 43.8823 10.518 44.5714 10.518C45.8116 10.518 46.1561 12.0338 46.1561 13.6874V28.7078ZM79.1595 27.192C78.126 27.192 77.0236 26.0207 76.6102 24.3671C76.059 22.4378 75.9901 19.6129 75.9901 16.0301C75.9901 13.0673 76.059 8.17539 76.9547 5.83276C77.5059 4.24805 78.4016 3.55904 79.504 3.55904C81.1576 3.55904 82.3978 5.97057 82.3978 13.8252C82.3978 19.8885 82.4667 22.989 81.9844 24.7116C81.571 26.0207 80.7442 27.192 79.1595 27.192ZM81.0887 48.8268C81.2265 48.9646 81.4332 49.0335 81.6399 49.0335C81.8466 49.0335 82.1222 48.7579 82.26 48.4823L110.096 3.49014C110.303 3.14564 110.372 2.93893 110.372 2.80113C110.372 2.59443 110.303 2.45663 110.096 2.31883L108.029 1.14752C107.822 1.00971 107.616 0.940812 107.409 0.940812C107.133 0.940812 106.995 1.21642 106.858 1.49202L79.2284 46.0708C79.0217 46.4153 78.815 46.6909 78.815 46.9665C78.815 47.1732 79.0217 47.3799 79.2284 47.5177L81.0887 48.8268ZM78.8839 29.8102C86.463 29.8102 90.1147 24.2982 90.1147 15.2033C90.1147 9.3467 88.4611 0.940812 79.7107 0.940812C71.5804 0.940812 68.3421 8.38209 68.3421 15.9612C68.3421 19.8885 69.9268 29.8102 78.8839 29.8102ZM109.614 46.0019C108.58 46.0019 107.478 44.8306 107.064 43.177C106.513 41.2477 106.444 38.4228 106.444 34.84C106.444 31.8772 106.513 26.9853 107.409 24.6427C107.96 23.0579 108.856 22.3689 109.958 22.3689C111.612 22.3689 112.852 24.7805 112.852 32.6351C112.852 38.6984 112.921 41.7989 112.439 43.5215C112.025 44.8306 111.198 46.0019 109.614 46.0019ZM109.338 48.6201C116.917 48.6201 120.569 43.108 120.569 34.0132C120.569 28.1566 118.915 19.7507 110.165 19.7507C102.035 19.7507 98.7962 27.192 98.7962 34.7711C98.7962 38.6984 100.381 48.6201 109.338 48.6201Z" fill="url(#paint0_linear_428_2707)"/>
<defs>
<linearGradient id="paint0_linear_428_2707" x1="60" y1="-16" x2="60" y2="79" gradientUnits="userSpaceOnUse">
<stop stop-color="#EBBF7C"/>
<stop offset="1" stop-color="#CE9846"/>
</linearGradient>
</defs>
</svg>
