<svg width="121" height="50" viewBox="0 0 121 50" fill="none" xmlns="http://www.w3.org/2000/svg">
<path d="M14.9355 49.0335C24.5816 49.0335 30.0937 42.1434 30.0937 36.4247C30.0937 29.6035 26.442 25.8829 20.3098 22.6445C27.131 18.7172 29.1291 15.6167 29.1291 10.3802C29.1291 5.48826 23.9615 0.940812 16.727 0.940812C6.18515 0.940812 0.948696 8.58879 0.948696 14.1697C0.948696 20.0952 4.32483 22.4378 9.97469 26.503C4.94494 29.6035 1.2243 33.3241 1.2243 39.3874C1.2243 43.866 4.87604 49.0335 14.9355 49.0335ZM14.8666 46.3464C12.1106 46.3464 7.83877 43.7282 7.83877 37.8716C7.83877 33.393 10.0436 30.0169 12.3862 28.1566C19.2074 31.9461 21.6189 34.4266 21.6189 38.4228C21.6189 43.4526 19.2074 46.3464 14.8666 46.3464ZM16.038 4.11025C20.0342 3.97244 22.3079 7.62418 22.3079 12.2405C22.3079 16.5124 20.1031 19.544 17.6227 21.2665C11.6972 17.8904 9.69909 16.099 9.69909 12.4472C9.69909 8.17539 11.6972 4.11025 16.038 4.11025ZM49.3859 0.940812C45.4586 0.940812 42.4269 2.18103 39.4642 4.73035C36.846 6.93518 34.5033 12.3094 34.5033 17.3392C34.5033 22.3689 37.7417 29.6035 45.9409 29.6035C50.0749 29.6035 52.4864 28.4322 53.5199 27.6054H54.0022C52.5553 37.1826 46.0787 44.6239 40.291 46.8287C39.8087 47.0354 39.3953 47.5177 39.3953 48C39.3953 48.8268 39.9465 49.0335 40.4977 49.0335C40.98 49.0335 41.9446 48.8957 42.6336 48.689C46.7677 47.5177 49.7304 46.0019 53.6577 42.6946C61.0301 36.4936 64.8197 26.1585 64.8197 16.8569C64.8197 14.721 64.1306 10.3113 60.9612 6.03947C58.2052 2.38773 55.0358 0.940812 49.3859 0.940812ZM49.5926 3.49014C53.8644 3.49014 54.898 9.14 54.898 15.5478C54.898 18.7172 54.9669 22.989 53.8644 24.2293C52.9687 25.125 51.5907 25.6073 50.006 25.6073C46.2854 25.6073 43.4604 20.5775 43.4604 13.7563C43.4604 7.41748 45.5275 3.49014 49.5926 3.49014ZM78.9443 27.192C77.9108 27.192 76.8084 26.0207 76.395 24.3671C75.8438 22.4378 75.7749 19.6129 75.7749 16.0301C75.7749 13.0673 75.8438 8.17539 76.7395 5.83276C77.2907 4.24805 78.1864 3.55904 79.2888 3.55904C80.9424 3.55904 82.1826 5.97057 82.1826 13.8252C82.1826 19.8885 82.2515 22.989 81.7692 24.7116C81.3558 26.0207 80.529 27.192 78.9443 27.192ZM80.8735 48.8268C81.0113 48.9646 81.218 49.0335 81.4247 49.0335C81.6314 49.0335 81.907 48.7579 82.0448 48.4823L109.881 3.49014C110.087 3.14564 110.156 2.93893 110.156 2.80113C110.156 2.59443 110.087 2.45663 109.881 2.31883L107.814 1.14752C107.607 1.00971 107.4 0.940812 107.194 0.940812C106.918 0.940812 106.78 1.21642 106.642 1.49202L79.0132 46.0708C78.8065 46.4153 78.5998 46.6909 78.5998 46.9665C78.5998 47.1732 78.8065 47.3799 79.0132 47.5177L80.8735 48.8268ZM78.6687 29.8102C86.2478 29.8102 89.8995 24.2982 89.8995 15.2033C89.8995 9.3467 88.2459 0.940812 79.4955 0.940812C71.3652 0.940812 68.1269 8.38209 68.1269 15.9612C68.1269 19.8885 69.7116 29.8102 78.6687 29.8102ZM109.398 46.0019C108.365 46.0019 107.262 44.8306 106.849 43.177C106.298 41.2477 106.229 38.4228 106.229 34.84C106.229 31.8772 106.298 26.9853 107.194 24.6427C107.745 23.0579 108.641 22.3689 109.743 22.3689C111.397 22.3689 112.637 24.7805 112.637 32.6351C112.637 38.6984 112.706 41.7989 112.223 43.5215C111.81 44.8306 110.983 46.0019 109.398 46.0019ZM109.123 48.6201C116.702 48.6201 120.354 43.108 120.354 34.0132C120.354 28.1566 118.7 19.7507 109.95 19.7507C101.819 19.7507 98.581 27.192 98.581 34.7711C98.581 38.6984 100.166 48.6201 109.123 48.6201Z" fill="url(#paint0_linear_428_2704)"/>
<defs>
<linearGradient id="paint0_linear_428_2704" x1="59.7848" y1="-16" x2="59.7848" y2="79" gradientUnits="userSpaceOnUse">
<stop stop-color="#EBBF7C"/>
<stop offset="1" stop-color="#CE9846"/>
</linearGradient>
</defs>
</svg>
