<svg width="122" height="53" viewBox="0 0 122 53" fill="none" xmlns="http://www.w3.org/2000/svg">
<path d="M15.7205 3.94081C11.7931 3.94081 8.76148 5.18103 5.79875 7.73035C3.18052 9.93518 0.837899 15.3094 0.837899 20.3392C0.837899 25.3689 4.07623 32.6035 12.2754 32.6035C16.4095 32.6035 18.821 31.4322 19.8545 30.6054H20.3368C18.8899 40.1826 12.4132 47.6239 6.62556 49.8287C6.14325 50.0354 5.72985 50.5177 5.72985 51C5.72985 51.8268 6.28106 52.0335 6.83226 52.0335C7.31457 52.0335 8.27918 51.8957 8.96818 51.689C13.1022 50.5177 16.065 49.0019 19.9923 45.6946C27.3647 39.4936 31.1542 29.1585 31.1542 19.8569C31.1542 17.721 30.4652 13.3113 27.2958 9.03947C24.5397 5.38773 21.3703 3.94081 15.7205 3.94081ZM15.9272 6.49014C20.199 6.49014 21.2325 12.14 21.2325 18.5478C21.2325 21.7172 21.3014 25.989 20.199 27.2293C19.3033 28.125 17.9253 28.6073 16.3406 28.6073C12.6199 28.6073 9.79499 23.5775 9.79499 16.7563C9.79499 10.4175 11.862 6.49014 15.9272 6.49014ZM43.763 13.0357H58.3011C60.437 13.0357 60.7815 12.7601 61.126 11.5888L63.7442 2.3561C63.8821 1.73599 63.6753 1.46039 63.1241 1.32259C62.2284 0.978083 62.0217 1.04698 61.7461 1.52929C60.5748 3.80301 60.0236 4.97432 57.6121 4.97432H42.3161C41.4204 4.97432 41.2826 5.24993 41.2137 6.07674L38.6644 27.5049C38.5955 28.1939 38.94 28.5384 39.7668 28.5384C42.385 28.5384 46.2435 29.0896 48.8617 30.4676C51.3421 31.7078 53.8225 34.5327 53.8225 39.0802C53.8225 46.2459 48.5172 48.5196 44.5899 48.5196C42.5917 48.5196 41.007 48.0373 40.0424 47.4861C38.5955 46.5904 37.562 45.9702 36.0462 45.8324C35.0816 45.7635 34.1858 46.5904 34.1858 48.1751C34.1858 50.1732 37.9754 52.0335 42.5917 52.0335C53.3402 52.0335 61.815 44.4544 61.815 35.3595C61.815 28.4006 57.7499 24.1976 52.789 22.3373C49.4129 21.0971 43.9697 20.5459 42.5917 20.6148L43.763 13.0357ZM79.7292 30.192C78.6957 30.192 77.5933 29.0207 77.1799 27.3671C76.6287 25.4378 76.5598 22.6129 76.5598 19.0301C76.5598 16.0673 76.6287 11.1754 77.5244 8.83276C78.0756 7.24805 78.9713 6.55904 80.0737 6.55904C81.7273 6.55904 82.9675 8.97057 82.9675 16.8252C82.9675 22.8885 83.0364 25.989 82.5541 27.7116C82.1407 29.0207 81.3139 30.192 79.7292 30.192ZM81.6584 51.8268C81.7962 51.9646 82.0029 52.0335 82.2096 52.0335C82.4163 52.0335 82.6919 51.7579 82.8297 51.4823L110.666 6.49014C110.872 6.14564 110.941 5.93893 110.941 5.80113C110.941 5.59443 110.872 5.45663 110.666 5.31883L108.599 4.14752C108.392 4.00971 108.185 3.94081 107.979 3.94081C107.703 3.94081 107.565 4.21642 107.427 4.49202L79.7981 49.0708C79.5914 49.4153 79.3847 49.6909 79.3847 49.9665C79.3847 50.1732 79.5914 50.3799 79.7981 50.5177L81.6584 51.8268ZM79.4536 32.8102C87.0327 32.8102 90.6844 27.2982 90.6844 18.2033C90.6844 12.3467 89.0308 3.94081 80.2804 3.94081C72.1501 3.94081 68.9118 11.3821 68.9118 18.9612C68.9118 22.8885 70.4965 32.8102 79.4536 32.8102ZM110.183 49.0019C109.15 49.0019 108.047 47.8306 107.634 46.177C107.083 44.2477 107.014 41.4228 107.014 37.84C107.014 34.8772 107.083 29.9853 107.979 27.6427C108.53 26.0579 109.425 25.3689 110.528 25.3689C112.181 25.3689 113.422 27.7805 113.422 35.6351C113.422 41.6984 113.491 44.7989 113.008 46.5215C112.595 47.8306 111.768 49.0019 110.183 49.0019ZM109.908 51.6201C117.487 51.6201 121.139 46.108 121.139 37.0132C121.139 31.1566 119.485 22.7507 110.735 22.7507C102.604 22.7507 99.3659 30.192 99.3659 37.7711C99.3659 41.6984 100.951 51.6201 109.908 51.6201Z" fill="url(#paint0_linear_428_2701)"/>
<defs>
<linearGradient id="paint0_linear_428_2701" x1="60.5697" y1="-13" x2="60.5697" y2="82" gradientUnits="userSpaceOnUse">
<stop stop-color="#EBBF7C"/>
<stop offset="1" stop-color="#CE9846"/>
</linearGradient>
</defs>
</svg>
