<svg width="52" height="103" viewBox="0 0 52 103" fill="none" xmlns="http://www.w3.org/2000/svg">
<path d="M22.789 53.3547C22.789 56.0374 22.789 86.1426 22.64 88.08C22.3419 95.9789 22.0438 96.426 12.3565 96.426H5.5009C4.30861 96.426 3.4144 96.5751 3.4144 97.3202V101.046C3.4144 101.94 3.8615 102.238 4.60668 102.238C5.35186 102.238 26.3659 101.791 27.7072 101.791C29.0485 101.791 49.3174 102.238 50.6587 102.238C51.7019 102.238 52 101.94 52 101.046V97.6183C52 96.8731 51.5529 96.426 50.5096 96.426H45.1444C35.4571 96.426 34.8609 95.3828 34.7119 87.6329C34.7119 85.6955 34.5628 54.0999 34.5628 52.3115V46.052C34.5628 26.8264 35.0099 3.42782 35.0099 2.0865C35.0099 0.894211 34.8609 0 33.9667 0C33.2215 0 32.6254 0.44711 31.8802 0.894211L1.02983 18.6294C-0.0134211 19.2256 -0.162457 19.8217 0.135614 20.4179L1.3279 23.1005C1.62597 23.6967 2.22211 23.6967 2.81826 23.5476L13.2507 20.1198C15.6353 19.3746 17.8708 18.9275 19.2122 18.9275C22.0438 18.9275 22.64 22.2063 22.789 27.2735C22.9381 39.0473 22.789 46.052 22.789 47.9895V53.3547Z" fill="url(#paint0_linear_428_2725)"/>
<defs>
<linearGradient id="paint0_linear_428_2725" x1="26" y1="0" x2="26" y2="102.238" gradientUnits="userSpaceOnUse">
<stop stop-color="#EBBF7C"/>
<stop offset="1" stop-color="#CE9846"/>
</linearGradient>
</defs>
</svg>
