<svg width="182" height="74" viewBox="0 0 182 74" fill="none" xmlns="http://www.w3.org/2000/svg">
<path d="M32.0379 71C36.0379 71 37.9379 71.1 38.5379 72.4C38.9379 73.2 39.0379 73.4 39.8379 73.4C40.7379 73.4 41.0379 73.1 41.3379 72.3L48.4379 53.8C48.7379 53.1 48.3379 52.7 47.2379 52.2C46.2379 51.7 45.9379 51.9 45.4379 52.8C43.2379 56.5 40.6379 60.4 34.1379 60.4H16.8379V60C19.9379 57.1 24.4379 53.4 30.2379 48C41.3379 37.6 45.3379 29.4 45.3379 20.9C45.3379 11 37.2379 2.7 26.3379 2.7C11.9379 2.7 6.43789 13.8 4.83789 17.7C4.43789 18.6 4.53789 18.9 4.83789 19.1L6.53789 19.8C6.93789 20 7.23789 20 7.73789 19.2C9.93789 15.6 13.6379 11.7 19.4379 11.4C26.1379 11.2 30.7379 16.2 31.0379 23.6C31.3379 32.3 27.3379 40.1 21.1379 47.9C13.8379 57.2 5.33789 65.1 1.73789 68.4C1.03789 69 0.837891 70.1 1.13789 70.8C1.43789 71.4 1.73789 71.4 2.23789 71.4C2.63789 71.4 3.83789 71.3 5.33789 71.2C6.83789 71.1 8.63789 71 10.3379 71H32.0379ZM69.3379 4.2C64.2379 4.2 63.4379 3.7 63.6379 2.3C63.8379 0.799998 63.4379 0.499996 62.3379 0.499996C61.1379 0.499996 61.0379 0.599994 60.8379 1.2L54.5379 19.8C54.2379 20.7 54.2379 20.8 55.1379 21.3C56.0379 21.8 56.6379 21.9 57.2379 21.1C60.1379 17.5 61.2379 15.6 67.2379 15.6H90.3379C85.8379 22.6 68.2379 51.4 66.5379 54.5C64.6379 57.8 62.1379 63 62.1379 66.2C62.1379 70 64.7379 72.5 68.1379 72.5C72.7379 72.5 75.4379 68.7 76.5379 64.8C79.2379 54.8 81.3379 46.2 86.7379 32.9C90.7379 22.9 97.2379 11.2 98.6379 9C99.3379 7.9 100.438 6.1 100.438 5.3C100.438 4.5 99.9379 4.2 99.4379 4.2H69.3379ZM103.638 34C103.238 34.2 103.038 34.6 103.038 34.9V36.1C103.038 36.4 103.238 36.6 103.738 36.9L105.738 38.1C108.238 39.6 108.938 41.2 108.938 45.6V58.2C108.938 60.8 108.938 63.3 108.838 65C108.738 66.4 107.938 67.5 106.938 67.5H104.138C103.038 67.5 102.938 67.6 102.938 68.4V70.4C102.938 71.1 103.138 71.3 103.738 71.3C104.538 71.3 107.738 71 114.438 71C121.538 71 124.238 71.3 125.138 71.3C125.838 71.3 125.938 70.9 125.938 70.2V68.4C125.938 67.7 125.838 67.5 124.938 67.5H124.038C122.938 67.5 121.938 66.5 121.938 61.4V45.3C121.838 41.5 122.238 39.2 123.538 37.2C124.738 35.5 127.038 34.1 129.038 34.1C131.238 34.1 132.838 34.4 133.738 35.3C134.938 36.4 135.938 38.7 135.938 45.6V60.4C135.938 66.2 134.938 67.5 133.538 67.5H132.138C131.238 67.5 131.138 67.7 131.138 68.5V70.3C131.138 71 131.338 71.3 131.838 71.3C132.438 71.3 135.838 71 143.238 71C149.338 71 151.938 71.3 152.638 71.3C153.138 71.3 153.338 71 153.338 70.2V68.4C153.338 67.7 153.138 67.5 152.238 67.5H150.438C149.338 67.5 148.738 66.5 148.738 63.6V43.8C148.738 42.4 148.738 39.2 150.238 37.5C151.438 36.4 153.438 34.3 156.238 34.3C158.538 34.3 159.538 34.9 161.138 36.7C162.438 38.1 162.738 40.2 162.738 46.4V56C162.738 59.7 162.438 63.3 162.238 65.6C162.138 67 160.938 67.5 160.238 67.5H159.338C159.038 67.5 158.738 67.7 158.738 68.4V70.1C158.738 71 158.938 71.3 159.538 71.3C160.238 71.3 163.838 71 169.838 71C177.138 71 179.938 71.3 180.638 71.3C181.138 71.3 181.338 71 181.338 70.3V68.4C181.338 67.7 181.138 67.5 180.238 67.5H178.238C176.638 67.5 175.238 66.4 175.338 63.6C175.438 61.5 175.738 56 175.738 52.6V45.4C175.738 35.5 174.338 34.6 171.438 31.7C168.338 28.5 166.238 27.9 161.738 27.9C156.638 27.9 151.738 30.6 148.338 34.6H147.838C145.238 30.5 142.138 27.6 135.738 27.6C129.438 27.6 124.338 30.7 121.538 34.6H121.038L120.238 28.9C120.038 27.9 119.438 27.6 118.838 27.6C118.138 27.6 117.438 27.9 116.538 28.3L103.638 34Z" fill="url(#paint0_linear_428_2663)"/>
<defs>
<linearGradient id="paint0_linear_428_2663" x1="92" y1="0" x2="92" y2="95" gradientUnits="userSpaceOnUse">
<stop stop-color="#EBBF7C"/>
<stop offset="1" stop-color="#CE9846"/>
</linearGradient>
</defs>
</svg>
