<svg width="154" height="50" viewBox="0 0 154 50" fill="none" xmlns="http://www.w3.org/2000/svg">
<path d="M9.91071 28.7078C9.91071 31.1882 9.97961 38.7673 9.84181 41.6611C9.70401 45.1751 8.6705 45.3818 4.88096 45.3818H3.08954C2.53834 45.3818 2.12493 45.4507 2.12493 45.8641V47.7244C2.12493 48.0689 2.26273 48.2067 2.67614 48.2067C3.02064 48.2067 12.7356 48 14.7338 48C15.9051 48 25.2756 48.2067 25.7579 48.2067C26.3091 48.2067 26.5158 48.0689 26.5158 47.7244V45.933C26.5158 45.5885 26.3091 45.3818 25.8268 45.3818H23.3464C19.9013 45.3818 19.6257 44.8995 19.5568 41.3166C19.5568 40.5587 19.4879 28.7078 19.4879 25.125V22.2311C19.4879 13.3429 19.6946 2.52553 19.6946 1.97432C19.6946 1.42312 19.4879 0.940812 19.0745 0.940812C18.5922 0.940812 18.2477 1.14752 17.7654 1.35422L1.02252 9.5534C0.540216 9.829 0.471315 10.1046 0.609116 10.3802L1.09142 11.7582C1.22922 12.0338 1.50483 12.0338 1.84933 11.9649L5.22546 11.0003C6.74128 10.5869 7.63699 10.518 8.326 10.518C9.56621 10.518 9.91071 12.0338 9.91071 13.6874V28.7078ZM48.2195 0.940812C38.0222 0.940812 32.6479 11.5515 32.6479 26.9164C32.6479 35.6668 36.1619 49.0335 48.2884 49.0335C58.2101 49.0335 63.3088 40.352 63.3088 24.5738C63.3088 14.1008 61.035 0.940812 48.2195 0.940812ZM48.564 3.76574C52.3536 3.76574 53.6627 11.4826 53.6627 23.0579C53.6627 33.1174 53.3871 38.3539 52.767 41.73C52.1468 44.8306 50.6999 46.2086 48.3573 46.2086C45.8769 46.2086 44.5678 44.7617 43.4654 40.8343C42.6386 37.8716 42.3629 32.704 42.3629 26.1585C42.3629 20.4397 43.1898 13.3429 44.2922 8.31319C44.8434 5.69496 46.1525 3.76574 48.564 3.76574ZM82.6699 0.940812C72.4726 0.940812 67.0983 11.5515 67.0983 26.9164C67.0983 35.6668 70.6122 49.0335 82.7388 49.0335C92.6605 49.0335 97.7591 40.352 97.7591 24.5738C97.7591 14.1008 95.4854 0.940812 82.6699 0.940812ZM83.0144 3.76574C86.8039 3.76574 88.113 11.4826 88.113 23.0579C88.113 33.1174 87.8374 38.3539 87.2173 41.73C86.5972 44.8306 85.1503 46.2086 82.8077 46.2086C80.3272 46.2086 79.0181 44.7617 77.9157 40.8343C77.0889 37.8716 76.8133 32.704 76.8133 26.1585C76.8133 20.4397 77.6401 13.3429 78.7425 8.31319C79.2937 5.69496 80.6028 3.76574 83.0144 3.76574ZM111.815 27.192C110.781 27.192 109.679 26.0207 109.266 24.3671C108.714 22.4378 108.645 19.6129 108.645 16.0301C108.645 13.0673 108.714 8.17539 109.61 5.83276C110.161 4.24805 111.057 3.55904 112.159 3.55904C113.813 3.55904 115.053 5.97057 115.053 13.8252C115.053 19.8885 115.122 22.989 114.64 24.7116C114.226 26.0207 113.4 27.192 111.815 27.192ZM113.744 48.8268C113.882 48.9646 114.089 49.0335 114.295 49.0335C114.502 49.0335 114.778 48.7579 114.915 48.4823L142.751 3.49014C142.958 3.14564 143.027 2.93893 143.027 2.80113C143.027 2.59443 142.958 2.45663 142.751 2.31883L140.684 1.14752C140.478 1.00971 140.271 0.940812 140.064 0.940812C139.789 0.940812 139.651 1.21642 139.513 1.49202L111.884 46.0708C111.677 46.4153 111.47 46.6909 111.47 46.9665C111.47 47.1732 111.677 47.3799 111.884 47.5177L113.744 48.8268ZM111.539 29.8102C119.118 29.8102 122.77 24.2982 122.77 15.2033C122.77 9.3467 121.116 0.940812 112.366 0.940812C104.236 0.940812 100.997 8.38209 100.997 15.9612C100.997 19.8885 102.582 29.8102 111.539 29.8102ZM142.269 46.0019C141.235 46.0019 140.133 44.8306 139.72 43.177C139.168 41.2477 139.1 38.4228 139.1 34.84C139.1 31.8772 139.168 26.9853 140.064 24.6427C140.615 23.0579 141.511 22.3689 142.613 22.3689C144.267 22.3689 145.507 24.7805 145.507 32.6351C145.507 38.6984 145.576 41.7989 145.094 43.5215C144.681 44.8306 143.854 46.0019 142.269 46.0019ZM141.993 48.6201C149.572 48.6201 153.224 43.108 153.224 34.0132C153.224 28.1566 151.571 19.7507 142.82 19.7507C134.69 19.7507 131.452 27.192 131.452 34.7711C131.452 38.6984 133.036 48.6201 141.993 48.6201Z" fill="url(#paint0_linear_428_2713)"/>
<defs>
<linearGradient id="paint0_linear_428_2713" x1="75.4302" y1="-16" x2="75.4302" y2="79" gradientUnits="userSpaceOnUse">
<stop stop-color="#EBBF7C"/>
<stop offset="1" stop-color="#CE9846"/>
</linearGradient>
</defs>
</svg>
