<svg width="20" height="19" viewBox="0 0 20 19" fill="none" xmlns="http://www.w3.org/2000/svg">
<path d="M10.1149 6.13135C8.42579 6.13135 7.04736 7.50977 7.04736 9.19886C7.04736 10.8879 8.42579 12.2664 10.1149 12.2664C11.804 12.2664 13.1824 10.8879 13.1824 9.19886C13.1824 7.50977 11.804 6.13135 10.1149 6.13135Z" fill="#6B6E6F"/>
<path fill-rule="evenodd" clip-rule="evenodd" d="M19.3155 8.73398C19.3153 8.88871 19.3151 9.04357 19.3151 9.19861C19.3151 9.37199 19.3154 9.54515 19.3156 9.71816C19.3172 10.8127 19.3189 11.9007 19.2553 12.9956C19.1839 14.4684 18.8503 15.7732 17.771 16.8524C16.694 17.9294 15.3869 18.2654 13.9142 18.3367C12.801 18.3993 11.6949 18.3981 10.5818 18.3969C10.4271 18.3967 10.2722 18.3965 10.1172 18.3965C9.96246 18.3965 9.80788 18.3967 9.65339 18.3969C8.54185 18.3981 7.43546 18.3993 6.3202 18.3367C4.84742 18.2654 3.54264 17.9317 2.46337 16.8524C1.38641 15.7755 1.05043 14.4684 0.979095 12.9956C0.916462 11.8823 0.917689 10.7744 0.918921 9.66245C0.919092 9.50792 0.919264 9.35331 0.919264 9.19861C0.919264 9.04388 0.919092 8.88928 0.918921 8.73479C0.917689 7.62326 0.916463 6.51687 0.979095 5.40162C1.05043 3.92884 1.38411 2.62406 2.46337 1.54479C3.54034 0.467829 4.84742 0.131853 6.3202 0.0605158C7.4334 -0.00211437 8.5395 -0.000890116 9.65253 0.000341797C9.80727 0.000513065 9.96214 0.000684481 10.1172 0.000684481C10.2719 0.000684481 10.4265 0.00051314 10.581 0.00034191C11.6925 -0.000890041 12.7989 -0.00211629 13.9142 0.0605158C15.3869 0.131853 16.6917 0.465528 17.771 1.54479C18.848 2.62176 19.1839 3.92884 19.2553 5.40162C19.3179 6.51483 19.3167 7.62094 19.3155 8.73398ZM5.39514 9.1986C5.39514 11.8105 7.50304 13.9184 10.1149 13.9184C12.7268 13.9184 14.8347 11.8105 14.8347 9.1986C14.8347 6.58673 12.7268 4.47882 10.1149 4.47882C7.50304 4.47882 5.39514 6.58673 5.39514 9.1986ZM13.9257 4.28552C13.9257 4.89534 14.4182 5.3878 15.028 5.3878C15.1728 5.38798 15.3162 5.35959 15.45 5.30426C15.5838 5.24893 15.7054 5.16775 15.8078 5.06536C15.9102 4.96296 15.9914 4.84138 16.0467 4.70756C16.1021 4.57374 16.1304 4.43033 16.1303 4.28552C16.1303 3.6757 15.6378 3.18324 15.028 3.18324C14.4182 3.18324 13.9257 3.6757 13.9257 4.28552Z" fill="#6B6E6F"/>
</svg>
