<svg width="126" height="127" viewBox="0 0 126 127" fill="none" xmlns="http://www.w3.org/2000/svg">
<g filter="url(#filter0_d_428_2688)">
<circle cx="63" cy="59" r="35" fill="white"/>
</g>
<path d="M58.6218 72.8495C58.1789 72.8504 57.7496 72.6961 57.4085 72.4135C57.2165 72.2543 57.0578 72.0589 56.9415 71.8383C56.8252 71.6177 56.7536 71.3764 56.7307 71.1281C56.7078 70.8798 56.7341 70.6294 56.8081 70.3913C56.8821 70.1531 57.0024 69.9319 57.162 69.7404L65.6554 59.5787L57.4654 49.3981C57.3079 49.2042 57.1903 48.981 57.1193 48.7415C57.0484 48.502 57.0254 48.2508 57.0519 48.0024C57.0783 47.754 57.1535 47.5133 57.2733 47.294C57.3931 47.0748 57.555 46.8814 57.7497 46.725C57.9459 46.5524 58.1756 46.4222 58.4245 46.3426C58.6733 46.263 58.9359 46.2357 59.1958 46.2624C59.4557 46.2891 59.7073 46.3692 59.9348 46.4977C60.1623 46.6263 60.3607 46.8005 60.5177 47.0093L69.6745 58.3843C69.9534 58.7236 70.1058 59.1491 70.1058 59.5882C70.1058 60.0273 69.9534 60.4528 69.6745 60.792L60.1954 72.167C60.0052 72.3965 59.7636 72.5778 59.4902 72.6964C59.2168 72.815 58.9193 72.8675 58.6218 72.8495Z" fill="#A1A1A1"/>
<defs>
<filter id="filter0_d_428_2688" x="1.90735e-06" y="0.666668" width="126" height="126" filterUnits="userSpaceOnUse" color-interpolation-filters="sRGB">
<feFlood flood-opacity="0" result="BackgroundImageFix"/>
<feColorMatrix in="SourceAlpha" type="matrix" values="0 0 0 0 0 0 0 0 0 0 0 0 0 0 0 0 0 0 127 0" result="hardAlpha"/>
<feOffset dy="4.66667"/>
<feGaussianBlur stdDeviation="14"/>
<feComposite in2="hardAlpha" operator="out"/>
<feColorMatrix type="matrix" values="0 0 0 0 0.370833 0 0 0 0 0.217914 0 0 0 0 0.210139 0 0 0 0.25 0"/>
<feBlend mode="normal" in2="BackgroundImageFix" result="effect1_dropShadow_428_2688"/>
<feBlend mode="normal" in="SourceGraphic" in2="effect1_dropShadow_428_2688" result="shape"/>
</filter>
</defs>
</svg>
