<svg width="24" height="19" viewBox="0 0 24 19" fill="none" xmlns="http://www.w3.org/2000/svg">
<path d="M23.4831 2.18225C22.6509 2.55102 21.7569 2.80019 20.817 2.91281C21.7868 2.33254 22.5123 1.41925 22.8582 0.343374C21.9471 0.88456 20.9499 1.2655 19.91 1.46962C19.2107 0.722974 18.2845 0.228084 17.2751 0.0617865C16.2658 -0.104511 15.2297 0.0670863 14.3279 0.549938C13.426 1.03279 12.7088 1.79988 12.2876 2.73212C11.8664 3.66435 11.7647 4.70957 11.9984 5.7055C10.1522 5.61281 8.34619 5.13296 6.69748 4.2971C5.04878 3.46124 3.59424 2.28805 2.42829 0.853673C2.02962 1.54138 1.80038 2.33872 1.80038 3.18789C1.79994 3.95234 1.98819 4.70508 2.34843 5.37932C2.70868 6.05357 3.22978 6.62847 3.8655 7.05301C3.12823 7.02955 2.40723 6.83034 1.76251 6.47195V6.53175C1.76243 7.60392 2.1333 8.64309 2.81219 9.47294C3.49108 10.3028 4.43617 10.8722 5.48709 11.0846C4.80316 11.2697 4.0861 11.2969 3.39008 11.1643C3.68659 12.0868 4.26416 12.8936 5.04194 13.4715C5.81972 14.0495 6.75877 14.3698 7.72763 14.3876C6.08294 15.6787 4.05176 16.379 1.96085 16.3759C1.59046 16.376 1.22039 16.3544 0.852539 16.3112C2.97494 17.6758 5.44557 18.4 7.96882 18.3972C16.5104 18.3972 21.1798 11.3228 21.1798 5.18723C21.1798 4.98789 21.1748 4.78657 21.1658 4.58723C22.0741 3.93039 22.8581 3.11703 23.4811 2.18524L23.4831 2.18225Z" fill="#6B6E6F"/>
</svg>
