<svg width="27" height="19" viewBox="0 0 27 19" fill="none" xmlns="http://www.w3.org/2000/svg">
<path fill-rule="evenodd" clip-rule="evenodd" d="M25.6028 1.40216C26.01 1.80985 26.303 2.31734 26.4524 2.87383C27.0002 4.92155 27.0002 9.19861 27.0002 9.19861C27.0002 9.19861 27.0002 13.4757 26.4524 15.5234C26.1507 16.6542 25.263 17.5447 24.1322 17.8465C22.0845 18.3972 13.8761 18.3972 13.8761 18.3972C13.8761 18.3972 5.66764 18.3972 3.61993 17.8465C2.49207 17.5447 1.60151 16.6542 1.29977 15.5234C0.751953 13.4757 0.751953 9.19861 0.751953 9.19861C0.751953 9.19861 0.751953 4.92155 1.29977 2.8709C1.4487 2.31417 1.7415 1.80642 2.14875 1.39866C2.55601 0.990887 3.06338 0.697451 3.61993 0.547815C5.66764 0 13.8761 0 13.8761 0C13.8761 0 22.0845 0 24.1322 0.550745C24.6885 0.700867 25.1957 0.994467 25.6028 1.40216ZM11.2688 5.27303V13.1241L18.0652 9.16925L11.2688 5.27303Z" fill="#6B6E6F"/>
</svg>
